<svg xmlns="http://www.w3.org/2000/svg" viewBox="0 0 64 64">
  <!-- stem -->
  <line x1="32" y1="58" x2="32" y2="38" stroke="#4ade80" stroke-width="3" stroke-linecap="round"/>
  <!-- leaf left -->
  <path d="M32 48 Q20 44 18 34 Q26 38 32 48Z" fill="#4ade80"/>
  <!-- leaf right -->
  <path d="M32 44 Q44 40 46 30 Q38 34 32 44Z" fill="#22c55e"/>
  <!-- petal back left -->
  <path d="M25 38 Q16 28 20 16 Q28 22 28 38Z" fill="#fb923c"/>
  <!-- petal back right -->
  <path d="M39 38 Q48 28 44 16 Q36 22 36 38Z" fill="#fb923c"/>
  <!-- petal center -->
  <path d="M32 36 Q22 24 26 10 Q32 16 38 10 Q42 24 32 36Z" fill="#f97316"/>
  <!-- shine -->
  <ellipse cx="29" cy="20" rx="2.5" ry="5" fill="rgba(255,255,255,0.3)" transform="rotate(-10 29 20)"/>
</svg>
